<svg width="1600" height="1100" viewBox="0 0 1600 1100" fill="none" xmlns="http://www.w3.org/2000/svg">
  <defs>
    <linearGradient id="bg" x1="190" y1="100" x2="1450" y2="1040" gradientUnits="userSpaceOnUse">
      <stop stop-color="#101C25"/><stop offset="0.52" stop-color="#091119"/><stop offset="1" stop-color="#05090D"/>
    </linearGradient>
    <linearGradient id="paper" x1="0" y1="0" x2="1" y2="1"><stop stop-color="#E8E2D4"/><stop offset="1" stop-color="#AEA99B"/></linearGradient>
    <linearGradient id="teal" x1="0" y1="0" x2="1" y2="1"><stop stop-color="#87F0DF"/><stop offset="1" stop-color="#249F91"/></linearGradient>
    <radialGradient id="glow"><stop stop-color="#61DCC8" stop-opacity=".26"/><stop offset="1" stop-color="#61DCC8" stop-opacity="0"/></radialGradient>
    <filter id="shadow"><feDropShadow dx="0" dy="28" stdDeviation="28" flood-color="#000" flood-opacity=".45"/></filter>
    <filter id="noise"><feTurbulence baseFrequency=".8" numOctaves="3" seed="4" type="fractalNoise"/><feColorMatrix type="saturate" values="0"/><feComponentTransfer><feFuncA type="table" tableValues="0 .11"/></feComponentTransfer></filter>
  </defs>
  <rect width="1600" height="1100" rx="56" fill="url(#bg)"/>
  <circle cx="1160" cy="300" r="430" fill="url(#glow)"/>
  <g opacity=".13" stroke="#9DEBDD">
    <path d="M0 180H1600M0 360H1600M0 540H1600M0 720H1600M0 900H1600"/>
    <path d="M220 0V1100M440 0V1100M660 0V1100M880 0V1100M1100 0V1100M1320 0V1100"/>
  </g>
  <g filter="url(#shadow)">
    <g transform="translate(500 120) rotate(-4 380 380)">
      <rect x="0" y="0" width="760" height="820" rx="22" fill="#0C151D" stroke="#BDEEE6" stroke-opacity=".13"/>
      <rect x="64" y="66" width="330" height="24" rx="12" fill="#D6DDD9" fill-opacity=".13"/>
      <rect x="64" y="110" width="510" height="10" rx="5" fill="#D6DDD9" fill-opacity=".08"/>
      <rect x="64" y="136" width="435" height="10" rx="5" fill="#D6DDD9" fill-opacity=".07"/>
      <rect x="64" y="202" width="632" height="1" fill="#D6DDD9" fill-opacity=".12"/>
      <text x="64" y="252" fill="#87F0DF" font-family="monospace" font-size="18" letter-spacing="4">EVIDENCIA / FUENTE</text>
      <g transform="translate(65 295)">
        <rect width="630" height="78" rx="12" fill="#101D26" stroke="#87F0DF" stroke-opacity=".16"/>
        <circle cx="35" cy="39" r="11" fill="#61DCC8" fill-opacity=".76"/>
        <rect x="70" y="23" width="255" height="11" rx="5.5" fill="#E3EBE7" fill-opacity=".28"/>
        <rect x="70" y="45" width="390" height="8" rx="4" fill="#E3EBE7" fill-opacity=".11"/>
      </g>
      <g transform="translate(65 392)">
        <rect width="630" height="78" rx="12" fill="#101D26" stroke="#87F0DF" stroke-opacity=".10"/>
        <circle cx="35" cy="39" r="11" fill="#B5A171"/>
        <rect x="70" y="23" width="310" height="11" rx="5.5" fill="#E3EBE7" fill-opacity=".25"/>
        <rect x="70" y="45" width="430" height="8" rx="4" fill="#E3EBE7" fill-opacity=".10"/>
      </g>
      <g transform="translate(65 489)">
        <rect width="630" height="78" rx="12" fill="#101D26" stroke="#87F0DF" stroke-opacity=".10"/>
        <circle cx="35" cy="39" r="11" fill="#61DCC8" fill-opacity=".45"/>
        <rect x="70" y="23" width="210" height="11" rx="5.5" fill="#E3EBE7" fill-opacity=".25"/>
        <rect x="70" y="45" width="365" height="8" rx="4" fill="#E3EBE7" fill-opacity=".10"/>
      </g>
      <path d="M66 628H694" stroke="#D6DDD9" stroke-opacity=".11"/>
      <text x="66" y="677" fill="#899AA5" font-family="monospace" font-size="15" letter-spacing="3">FUENTE ≠ ANÁLISIS ≠ DECISIÓN</text>
    </g>
    <g transform="translate(175 290) rotate(6 220 300)">
      <rect width="420" height="600" rx="20" fill="url(#paper)"/>
      <rect x="48" y="50" width="218" height="18" rx="9" fill="#1C242A" fill-opacity=".18"/>
      <rect x="48" y="91" width="314" height="8" rx="4" fill="#1C242A" fill-opacity=".15"/>
      <rect x="48" y="113" width="280" height="8" rx="4" fill="#1C242A" fill-opacity=".12"/>
      <path d="M48 166H365" stroke="#1C242A" stroke-opacity=".18"/>
      <g transform="translate(80 215)">
        <rect width="155" height="155" rx="26" fill="#20323A"/>
        <path d="M39 109L78 47L117 109" stroke="url(#teal)" stroke-width="14" stroke-linecap="round" stroke-linejoin="round"/>
        <circle cx="78" cy="83" r="14" fill="#20323A" stroke="#87F0DF" stroke-width="7"/>
      </g>
      <rect x="48" y="414" width="238" height="11" rx="5.5" fill="#1C242A" fill-opacity=".23"/>
      <rect x="48" y="442" width="314" height="8" rx="4" fill="#1C242A" fill-opacity=".14"/>
      <rect x="48" y="465" width="274" height="8" rx="4" fill="#1C242A" fill-opacity=".12"/>
      <rect x="48" y="506" width="92" height="30" rx="15" fill="#1F8E80" fill-opacity=".24" stroke="#1F8E80" stroke-opacity=".42"/>
    </g>
  </g>
  <g opacity=".92">
    <g stroke="#61DCC8" stroke-opacity=".36" stroke-width="2">
      <path d="M1058 230L1265 140L1424 254L1328 440L1138 484L1008 358Z"/>
      <path d="M1058 230L1328 440M1265 140L1138 484M1424 254L1008 358"/>
    </g>
    <g fill="#091119" stroke="#87F0DF" stroke-width="3">
      <circle cx="1058" cy="230" r="18"/><circle cx="1265" cy="140" r="14"/><circle cx="1424" cy="254" r="17"/><circle cx="1328" cy="440" r="13"/><circle cx="1138" cy="484" r="16"/><circle cx="1008" cy="358" r="12"/>
    </g>
  </g>
  <rect width="1600" height="1100" rx="56" filter="url(#noise)" opacity=".5"/>
</svg>