<svg width="1400" height="900" viewBox="0 0 1400 900" fill="none" xmlns="http://www.w3.org/2000/svg">
<defs>
  <linearGradient id="bg" x1="0" y1="0" x2="1400" y2="900"><stop stop-color="#0A1016"/><stop offset="1" stop-color="#081015"/></linearGradient>
  <linearGradient id="signal" x1="220" y1="630" x2="1170" y2="320"><stop stop-color="#245B57"/><stop offset=".55" stop-color="#72DFCF"/><stop offset="1" stop-color="#B4F5E9"/></linearGradient>
  <radialGradient id="halo"><stop stop-color="#49C8B4" stop-opacity=".16"/><stop offset="1" stop-color="#49C8B4" stop-opacity="0"/></radialGradient>
</defs>
<rect width="1400" height="900" rx="42" fill="url(#bg)"/>
<circle cx="1090" cy="245" r="340" fill="url(#halo)"/>
<g font-family="Arial, Helvetica, sans-serif">
<text x="72" y="82" fill="#667581" font-size="13" letter-spacing="2">VIGILANCIA MARCARIA · VIDENTIA</text>
<text x="72" y="134" fill="#F4F8F7" font-size="38" font-weight="700">Una investigación que sigue viva.</text>
<text x="72" y="174" fill="#8D9AA6" font-size="17">Cambios y nuevos antecedentes aparecen como eventos trazables, no como ruido.</text>
<rect x="72" y="230" width="1256" height="530" rx="30" fill="#0B1219" stroke="#FFFFFF" stroke-opacity=".08"/>
<g stroke="#FFFFFF" stroke-opacity=".055">
  <path d="M130 650H1270"/><path d="M130 560H1270"/><path d="M130 470H1270"/><path d="M130 380H1270"/><path d="M130 290H1270"/>
  <path d="M210 270V700"/><path d="M410 270V700"/><path d="M610 270V700"/><path d="M810 270V700"/><path d="M1010 270V700"/><path d="M1210 270V700"/>
</g>
<path d="M150 610C250 596 315 615 410 570C510 523 558 548 650 502C748 453 810 484 900 414C1000 336 1072 380 1240 300" stroke="url(#signal)" stroke-width="4" fill="none"/>
<g fill="#0C171D" stroke="#72DFCF" stroke-width="2">
  <circle cx="410" cy="570" r="10"/><circle cx="650" cy="502" r="10"/><circle cx="900" cy="414" r="10"/><circle cx="1240" cy="300" r="10"/>
</g>
<g>
  <rect x="315" y="420" width="190" height="108" rx="16" fill="#101B23" stroke="#FFFFFF" stroke-opacity=".08"/>
  <text x="338" y="450" fill="#72DFCF" font-size="11">NUEVO ANTECEDENTE</text>
  <text x="338" y="480" fill="#F0F5F4" font-size="16" font-weight="700">Solicitud detectada</text>
  <text x="338" y="506" fill="#7D8B96" font-size="12">Fuente oficial · revisar</text>
</g>
<g>
  <rect x="806" y="526" width="214" height="108" rx="16" fill="#101B23" stroke="#FFFFFF" stroke-opacity=".08"/>
  <text x="830" y="556" fill="#72DFCF" font-size="11">CAMBIO DE ESTADO</text>
  <text x="830" y="586" fill="#F0F5F4" font-size="16" font-weight="700">Expediente actualizado</text>
  <text x="830" y="612" fill="#7D8B96" font-size="12">Fecha · estado · evidencia</text>
</g>
<g>
  <rect x="1034" y="380" width="238" height="108" rx="16" fill="#101B23" stroke="#FFFFFF" stroke-opacity=".08"/>
  <text x="1058" y="410" fill="#72DFCF" font-size="11">ALERTA PRIORIZADA</text>
  <text x="1058" y="440" fill="#F0F5F4" font-size="16" font-weight="700">Revisión recomendada</text>
  <text x="1058" y="466" fill="#7D8B96" font-size="12">Señal explicada · fuente visible</text>
</g>
<g fill="#64737E" font-size="11">
  <text x="174" y="724">INICIO</text><text x="380" y="724">BÚSQUEDA</text><text x="574" y="724">CASO</text><text x="776" y="724">VIGILANCIA</text><text x="980" y="724">CAMBIO</text><text x="1182" y="724">ALERTA</text>
</g>
<rect x="72" y="792" width="1256" height="52" rx="16" fill="#091017" stroke="#FFFFFF" stroke-opacity=".06"/>
<circle cx="100" cy="818" r="5" fill="#72DFCF"/>
<text x="120" y="823" fill="#A5B0BA" font-size="14">Ejemplo visual: cada evento conserva fecha, fuente y motivo de revisión.</text>
</g>
</svg>